<svg version="1.1" xmlns="http://www.w3.org/2000/svg" width="38" height="32" viewBox="0 0 38 32">
<title>shopping-cart</title>
<path d="M37.815 7.814h0.002l-5.28 11.733c-0.26 0.578-0.823 0.99-1.487 1.035v0l-15.206 1.013 0.879 2.509h16.557c1.943 0 3.52 1.577 3.52 3.522 0 1.943-1.577 3.52-3.52 3.52s-3.52-1.577-3.52-3.52h-16.427c0 1.943-1.577 3.52-3.52 3.52s-3.52-1.577-3.52-3.52c0-1.946 1.577-3.522 3.52-3.522h3.181l-6.775-19.358h-4.032c-0.973 0-1.76-0.789-1.76-1.76 0-0.973 0.787-1.76 1.76-1.76h5.28c0.768 0 1.414 0.495 1.655 1.18l0.006-0.002 1.024 2.929h26.061c0.973 0 1.76 0.787 1.76 1.76 0 0.256-0.058 0.499-0.158 0.721zM11.386 8.853l3.253 9.295 15.123-1.009 3.729-8.286h-22.106z"></path>
</svg>
